<svg version="1.1" xmlns="http://www.w3.org/2000/svg" viewBox="0 0 223.14068303088447 281.9379991673434" width="223.14068303088447" height="281.9379991673434">
  <!-- svg-source:excalidraw -->
  
  <defs>
    <style class="style-fonts">
      @font-face {
        font-family: "Virgil";
        src: url("https://excalidraw.com/Virgil.woff2");
      }
      @font-face {
        font-family: "Cascadia";
        src: url("https://excalidraw.com/Cascadia.woff2");
      }
    </style>
    
  </defs>
  <g stroke-linecap="round"><g transform="translate(-2.816546585740639 255.52264418900972) rotate(277.18733509555284 114.3171007941483 -114.8583781474581)"><path d="M0.01 2 C16.96 -2.77, 77.17 -12.87, 100.15 -29.26 C123.12 -45.65, 133.85 -79.01, 137.87 -96.34 C141.9 -113.68, 131.66 -126.44, 124.3 -133.26 C116.95 -140.08, 101.69 -139.97, 93.72 -137.27 C85.76 -134.57, 78.84 -125.85, 76.51 -117.04 C74.18 -108.24, 72.21 -91.27, 79.77 -84.45 C87.32 -77.63, 102.96 -68.16, 121.82 -76.14 C140.68 -84.11, 174.95 -106.38, 192.94 -132.31 C210.93 -158.24, 223.56 -215.18, 229.74 -231.72 M-3.43 0.62 C13.33 -3.7, 74.88 -10.47, 98.22 -26.18 C121.56 -41.89, 132.13 -76.12, 136.62 -93.64 C141.12 -111.15, 132.92 -124.29, 125.19 -131.28 C117.46 -138.26, 99.04 -137.74, 90.22 -135.53 C81.39 -133.32, 73.95 -125.93, 72.26 -118 C70.56 -110.08, 72.11 -94.95, 80.06 -87.98 C88.01 -81.01, 101.73 -68.48, 119.96 -76.19 C138.19 -83.9, 170.74 -109.34, 189.42 -134.22 C208.11 -159.1, 225.07 -209.43, 232.07 -225.47" stroke="#1e1e1e" stroke-width="2" fill="none"></path></g><g transform="translate(-2.816546585740639 255.52264418900972) rotate(277.18733509555284 114.3171007941483 -114.8583781474581)"><path d="M234.06 -194.66 C230.1 -201.35, 230.69 -209.35, 230.43 -225.55 M229.59 -195.94 C231.83 -205.11, 231.96 -214.93, 232.74 -227.2" stroke="#1e1e1e" stroke-width="2" fill="none"></path></g><g transform="translate(-2.816546585740639 255.52264418900972) rotate(277.18733509555284 114.3171007941483 -114.8583781474581)"><path d="M214.99 -202.24 C215.66 -207.08, 220.92 -213.22, 230.43 -225.55 M210.52 -203.52 C219.61 -210.38, 226.49 -217.52, 232.74 -227.2" stroke="#1e1e1e" stroke-width="2" fill="none"></path></g></g><mask></mask></svg>